# Blender v2.91.0 OBJ File: ''
# www.blender.org
mtllib shotgun.mtl
o pistol
v 1.206653 1.384557 -1.442724
v 1.206653 -0.575923 -1.442724
v 1.206653 1.384557 1.455132
v 1.206653 -0.575923 1.455132
v -0.284469 0.685925 -1.200449
v -1.206653 -1.028749 -1.200449
v -0.284469 0.685925 1.212857
v -1.206653 -1.028749 1.212857
v -0.251846 -2.382051 -1.200449
v -0.251846 -2.382051 1.212857
v -1.206653 -3.353733 -1.200449
v -1.206653 -3.353733 1.212857
v 13.711555 1.030171 -1.442724
v 13.711555 -0.221538 -1.442724
v 13.711555 1.054893 1.455132
v 13.711555 -0.246259 1.455132
v -5.736419 -1.028749 -1.200449
v -5.736419 -1.028749 1.212857
v -5.736419 -3.353733 -1.200449
v -5.736419 -3.353733 1.212857
v -1.206653 -1.028749 -0.115579
v -1.206653 -1.028749 0.127987
v 1.206653 1.108823 -0.115579
v 1.206653 1.108823 0.127987
v -0.284469 0.685925 0.127987
v -0.284469 0.685925 -0.115579
v 1.206653 -0.300190 0.127987
v 1.206653 -0.300190 -0.115579
v -1.206653 -3.353733 -0.115579
v -1.206653 -3.353733 0.127987
v -0.251846 -2.382051 0.127987
v -0.251846 -2.382051 -0.115579
v 13.711555 1.108823 -0.115579
v 13.711555 1.108823 0.127987
v 13.711555 -0.300190 0.127987
v 13.711555 -0.300190 -0.115579
v -5.736419 -1.028749 -0.115579
v -5.736419 -1.028749 0.127987
v -5.736419 -3.353733 -0.115579
v -5.736419 -3.353733 0.127987
v 3.549041 1.108823 -0.115579
v 3.549041 1.108823 0.127987
v 3.549041 -0.300190 0.127987
v 3.549041 -0.300190 -0.115579
vt 0.625000 0.637616
vt 0.875000 0.637616
vt 0.875000 0.750000
vt 0.625000 0.750000
vt 0.375000 0.750000
vt 0.625000 1.000000
vt 0.375000 1.000000
vt 0.375000 0.137616
vt 0.625000 0.137616
vt 0.625000 0.250000
vt 0.375000 0.250000
vt 0.375000 0.250000
vt 0.375000 0.250000
vt 0.375000 0.250000
vt 0.625000 0.500000
vt 0.375000 0.500000
vt 0.125000 0.637616
vt 0.375000 0.637616
vt 0.375000 0.750000
vt 0.125000 0.750000
vt 0.375000 0.637616
vt 0.375000 0.500000
vt 0.375000 1.000000
vt 0.375000 0.137616
vt 0.375000 0.137616
vt 0.125000 0.750000
vt 0.125000 0.637616
vt 0.375000 1.000000
vt 0.375000 1.000000
vt 0.375000 0.000000
vt 0.375000 0.112384
vt 0.375000 0.112384
vt 0.375000 0.000000
vt 0.125000 0.500000
vt 0.125000 0.612384
vt 0.125000 0.612384
vt 0.125000 0.500000
vt 0.375000 0.112384
vt 0.375000 0.000000
vt 0.375000 0.612384
vt 0.375000 0.612384
vt 0.625000 0.000000
vt 0.625000 0.112384
vt 0.875000 0.500000
vt 0.875000 0.612384
vt 0.625000 0.612384
vt 0.375000 0.612384
vt 0.625000 0.612384
vt 0.625000 0.637616
vt 0.375000 0.637616
vt 0.375000 0.500000
vt 0.375000 0.612384
vt 0.375000 0.637616
vt 0.625000 0.637616
vt 0.625000 0.750000
vt 0.375000 0.750000
vt 0.625000 0.500000
vt 0.625000 0.612384
vn -0.3424 0.9335 -0.1067
vn -0.1328 0.0333 0.9906
vn -0.8807 0.4737 0.0000
vn 0.0000 0.0000 -1.0000
vn -0.1328 0.0333 -0.9906
vn 0.7133 -0.7009 0.0000
vn 0.8001 -0.5960 -0.0681
vn -0.0553 -0.0390 -0.9977
vn -0.0553 -0.0390 0.9977
vn -1.0000 0.0000 0.0000
vn 0.0000 -1.0000 0.0000
vn 0.0000 0.0000 1.0000
vn 0.0000 1.0000 0.0000
vn 0.8001 -0.5960 0.0681
vn 0.8190 -0.5738 0.0000
vn -0.3424 0.9335 0.1067
vn -0.2728 0.9621 0.0000
vn 1.0000 -0.0000 0.0000
vn 0.0141 -0.9972 0.0740
vn 0.0131 0.9964 -0.0833
vn 0.0141 0.9972 0.0740
vn 0.0131 -0.9964 -0.0833
usemtl Material
s off
f 24/1/1 25/2/1 7/3/1 3/4/1
f 4/5/2 3/4/2 7/6/2 8/7/2
f 21/8/3 26/9/3 5/10/3 6/11/3
f 6/11/4 11/12/4 19/13/4 17/14/4
f 6/11/5 5/10/5 1/15/5 2/16/5
f 30/17/6 31/18/6 10/19/6 12/20/6
f 27/21/7 4/5/7 10/19/7 31/18/7
f 6/11/8 2/16/8 9/22/8 11/12/8
f 4/5/9 8/7/9 12/23/9 10/19/9
f 37/24/10 17/14/10 19/13/10 39/25/10
f 30/17/11 12/20/11 20/26/11 40/27/11
f 12/23/12 8/7/12 18/28/12 20/29/12
f 21/8/13 6/11/13 17/14/13 37/24/13
f 8/30/13 22/31/13 38/32/13 18/33/13
f 22/31/13 21/8/13 37/24/13 38/32/13
f 11/34/11 29/35/11 39/36/11 19/37/11
f 29/35/11 30/17/11 40/27/11 39/36/11
f 18/33/10 38/32/10 40/38/10 20/39/10
f 38/32/10 37/24/10 39/25/10 40/38/10
f 2/16/14 28/40/14 32/41/14 9/22/14
f 28/40/15 27/21/15 31/18/15 32/41/15
f 11/34/6 9/22/6 32/41/6 29/35/6
f 29/35/6 32/41/6 31/18/6 30/17/6
f 8/30/3 7/42/3 25/43/3 22/31/3
f 22/31/3 25/43/3 26/9/3 21/8/3
f 1/15/16 5/44/16 26/45/16 23/46/16
f 23/46/17 26/45/17 25/2/17 24/1/17
f 44/47/18 41/48/18 42/49/18 43/50/18
f 23/46/13 24/1/13 42/49/13 41/48/13
f 27/21/11 28/40/11 44/47/11 43/50/11
usemtl barrel
f 28/40/19 2/16/19 14/51/19 36/52/19 44/47/19
f 35/53/18 34/54/18 15/55/18 16/56/18
f 24/1/20 3/4/20 15/55/20 34/54/20 42/49/20
f 3/4/12 4/5/12 16/56/12 15/55/12
f 2/16/4 1/15/4 13/57/4 14/51/4
f 1/15/21 23/46/21 41/48/21 33/58/21 13/57/21
f 14/51/18 13/57/18 33/58/18 36/52/18
f 36/52/12 33/58/12 41/48/12 44/47/12
f 4/5/22 27/21/22 43/50/22 35/53/22 16/56/22
f 34/54/4 35/53/4 43/50/4 42/49/4
